name symmetric_stride_kinematics_HTD_Plus_4.mot
datacolumns 38
datarows 5
range 0.00000000 0.00418044
endheader
                time	/jointset/ground_pelvis/pelvis_tilt/value	/jointset/ground_pelvis/pelvis_list/value	/jointset/ground_pelvis/pelvis_rotation/value	/jointset/ground_pelvis/pelvis_tx/value	/jointset/ground_pelvis/pelvis_ty/value	/jointset/ground_pelvis/pelvis_tz/value	/jointset/hip_r/hip_flexion_r/value	/jointset/hip_r/hip_adduction_r/value	/jointset/hip_r/hip_rotation_r/value	/jointset/knee_r/knee_angle_r/value	/jointset/ankle_r/ankle_angle_r/value	/jointset/subtalar_r/subtalar_angle_r/value	/jointset/mtp_r/mtp_angle_r/value	/jointset/hip_l/hip_flexion_l/value	/jointset/hip_l/hip_adduction_l/value	/jointset/hip_l/hip_rotation_l/value	/jointset/knee_l/knee_angle_l/value	/jointset/ankle_l/ankle_angle_l/value	/jointset/subtalar_l/subtalar_angle_l/value	/jointset/mtp_l/mtp_angle_l/value	/jointset/back/lumbar_extension/value	/jointset/back/lumbar_bending/value	/jointset/back/lumbar_rotation/value	/jointset/acromial_r/arm_flex_r/value	/jointset/acromial_r/arm_add_r/value	/jointset/acromial_r/arm_rot_r/value	/jointset/elbow_r/elbow_flex_r/value	/jointset/radioulnar_r/pro_sup_r/value	/jointset/radius_hand_r/wrist_flex_r/value	/jointset/radius_hand_r/wrist_dev_r/value	/jointset/acromial_l/arm_flex_l/value	/jointset/acromial_l/arm_add_l/value	/jointset/acromial_l/arm_rot_l/value	/jointset/elbow_l/elbow_flex_l/value	/jointset/radioulnar_l/pro_sup_l/value	/jointset/radius_hand_l/wrist_flex_l/value	/jointset/radius_hand_l/wrist_dev_l/value	
          0.00000000	         -5.46175325	         -6.53056628	         -0.67153957	          0.00000000	          0.99577020	          0.30262331	         35.91421295	          4.90639605	         -1.75203680	        -19.52539130	        -26.66866878	        -17.26365494	         -7.52466224	         16.16375860	        -12.57495468	          2.09612037	       -118.53295333	         -9.23329898	        -18.48116054	         -3.54915319	        -19.43255115	         10.32288445	         -5.32129605	        -15.19181543	        -26.24000117	        -14.95418713	         92.85011542	         80.50933691	        -23.37888511	          5.13745639	         -0.45028255	        -24.64511212	        -14.99409560	         73.51448860	         71.64425849	        -18.37224137	          5.08786913	
          0.00064818	         -5.56761825	         -6.50633819	         -0.96698103	          0.00770083	          0.99541703	          0.30284064	         35.60559621	          5.02083821	         -1.81673655	        -19.27637333	        -26.09520021	        -16.95412758	         -7.14111763	         16.59816727	        -12.58609513	          1.93298135	       -118.93571621	         -9.02805473	        -18.55101089	         -3.42984895	        -19.31788175	         10.26250831	         -5.12990368	        -14.23779985	        -26.23413655	        -14.96510974	         92.93960176	         80.68406740	        -23.29026749	          5.12514908	         -0.94417255	        -24.48609246	        -14.98697214	         73.16536472	         71.41236162	        -18.48525397	          5.08785614	
          0.00269617	         -5.91144531	         -6.41411131	         -1.92516568	          0.03203553	          0.99421118	          0.30353272	         34.63633562	          5.37014735	         -1.97559899	        -18.53415969	        -24.18401503	        -15.95063700	         -5.89932142	         17.98980420	        -12.62992423	          1.40112652	       -120.19561760	         -8.38745156	        -18.76605014	         -3.24044218	        -18.93864729	         10.06016448	         -4.49253540	        -11.20759418	        -26.19854336	        -14.99265125	         93.18127007	         81.35422811	        -23.01450447	          5.11130479	         -2.48483522	        -23.95569891	        -14.95207298	         72.13316925	         70.69448684	        -18.84454436	          5.11675574	
          0.00418044	         -6.16857555	         -6.33187539	         -2.64168628	          0.04967559	          0.99325191	          0.30403811	         33.93887395	          5.61035725	         -2.03500662	        -18.04140731	        -22.73881397	        -15.22184793	         -4.95934296	         19.01601174	        -12.67064751	          1.00141882	       -121.09618965	         -7.93187949	        -18.91876617	         -3.28069903	        -18.64828373	          9.90327597	         -4.00082288	         -9.00151204	        -26.16061433	        -14.99998308	         93.32399676	         81.88913321	        -22.82074598	          5.10544707	         -3.58833497	        -23.54702734	        -14.91901734	         71.45399380	         70.21335730	        -19.10449252	          5.13982046	
          0.00418044	         -6.16857555	         -6.33187539	         -2.64168628	          0.04967559	          0.99325191	          0.30403811	         33.93887395	          5.61035725	         -2.03500662	        -18.04140731	        -22.73881397	        -15.22184793	         -4.95934296	         19.01601174	        -12.67064751	          1.00141882	       -121.09618965	         -7.93187949	        -18.91876617	         -3.28069903	        -18.64828373	          9.90327597	         -4.00082288	         -9.00151204	        -26.16061433	        -14.99998308	         93.32399676	         81.88913321	        -22.82074598	          5.10544707	         -3.58833497	        -23.54702734	        -14.91901734	         71.45399380	         70.21335730	        -19.10449252	          5.13982046	
